<svg width="20" height="20" viewBox="0 0 20 20" fill="none" xmlns="http://www.w3.org/2000/svg">
<g clip-path="url(#clip0_252_6101)">
<path d="M18.2598 8.36084L18.2461 8.43115L18.2598 8.50146C18.3597 9.01899 18.4131 9.55294 18.4131 10.0991C18.4131 14.7375 14.6385 18.5122 10 18.5122C5.36159 18.5122 1.58691 14.7375 1.58691 10.0991C1.58694 9.55295 1.64031 9.01898 1.74023 8.50146L1.75391 8.43115L1.74023 8.36084L0.46875 1.5835L5.9502 2.63428L6.07617 2.65771L6.19141 2.6001C7.33541 2.01664 8.62938 1.68701 10 1.68701C11.3706 1.68701 12.6646 2.01664 13.8086 2.6001L13.9238 2.65771L14.0498 2.63428L19.5303 1.5835L18.2598 8.36084ZM7.59277 10.144C7.59277 11.085 8.13081 11.9129 8.91797 12.313L8.92578 13.0112C8.92398 13.3707 8.63196 13.6597 8.24902 13.6597C7.88395 13.6595 7.57324 13.364 7.57324 12.9497V12.5757H5.50977V12.9497C5.50977 14.4657 6.73235 15.723 8.24902 15.7231C8.91275 15.7231 9.52228 15.4889 9.99902 15.0942C10.4767 15.4886 11.0875 15.7192 11.751 15.7192C13.2669 15.7192 14.4904 14.4666 14.4902 12.9497V12.5757H12.4268V12.9497C12.4268 13.3614 12.1185 13.6536 11.751 13.6538C11.3688 13.6538 11.076 13.3609 11.0742 13.0073L11.0811 12.313C11.8686 11.913 12.4072 11.0853 12.4072 10.144V9.77002H10.3438V10.144C10.3438 10.3611 10.2041 10.4878 10 10.4878C9.79593 10.4878 9.65625 10.3612 9.65625 10.144V9.77002H7.59277V10.144Z" fill="white" stroke="white" stroke-width="0.748576"/>
</g>
<defs>
<clipPath id="clip0_252_6101">
<rect width="20" height="20" fill="white"/>
</clipPath>
</defs>
</svg>
